# xmcd
#
# Track frame offsets: 
#        150
#        18025
#        29996
#        41475
#        58038
#        77393
#        93812
#        105591
#        122058
#        132162
#        141102
#        157187
#        185723
#        201472
#        212726
#        222025
#
# Disc length: 3130 seconds
#
# Revision: 0
# Processed by: cddbd v1.5.2PL0 Copyright (c) Steve Scherf et al.
# Submitted via: ExactAudioCopy v0.99pb3
#
DISCID=e30c3810
DTITLE=Harrison Kennedy - High Country Blues
DYEAR=2007
DGENRE=Blues
TTITLE0=Let Me Call You
TTITLE1=Everybody Gets The Blues
TTITLE2=High Country Blues
TTITLE3=The Jones
TTITLE4=Run-A-Round Blues
TTITLE5=Love Serenade
TTITLE6=Baby Boy
TTITLE7=U Meant It
TTITLE8=Rollin' Man Blues
TTITLE9=Don't Set You Mind To Worryin'
TTITLE10=I Got Your Number
TTITLE11=Luv Work
TTITLE12=Scratchin' Time
TTITLE13=Blues From The Bottle
TTITLE14=Get Up'N' Go
TTITLE15=Gonna Be Alright
EXTD=
EXTT0=
EXTT1=
EXTT2=
EXTT3=
EXTT4=
EXTT5=
EXTT6=
EXTT7=
EXTT8=
EXTT9=
EXTT10=
EXTT11=
EXTT12=
EXTT13=
EXTT14=
EXTT15=
PLAYORDER=
